<svg xmlns="http://www.w3.org/2000/svg" version="1.1" xmlns:xlink="http://www.w3.org/1999/xlink" xmlns:svgjs="http://svgjs.com/svgjs" width="512" height="512" x="0" y="0" viewBox="0 0 512 512" style="enable-background:new 0 0 512 512" xml:space="preserve" class=""><g><path fill="#35b9ff" d="M359.031 10.926A38.482 38.482 0 0 0 337.176 0c1.648 11.617-1.992 23.844-10.926 32.781l-54.637 54.633c-18.12 18.117-18.12 47.441 0 65.563l76.489-10.93 10.93-76.484c15.085-15.09 15.085-39.547 0-54.637zm0 0" data-original="#35b9ff"></path><path fill="#fa4087" d="m413.664 120.195-43.707 43.707-32.777-76.488 21.851-21.852zm0 0" data-original="#fa4087"></path><path fill="#ffeab0" d="m391.813 142.047-43.708 43.707-32.789-76.477 21.864-21.863zm0 0" data-original="#ffeab0" class=""></path><path fill="#fa4087" d="M369.957 163.902 326.25 207.61l-32.785-76.48 21.851-21.852zm0 0" data-original="#fa4087"></path><path fill="#fa4087" d="m348.098 185.762-43.707 43.707-54.633-54.633 21.851-21.856zm0 0" data-original="#fa4087"></path><path fill="#ffeab0" d="m348.105 185.754-21.859 21.863-54.637-54.637 21.856-21.851zM228.727 275.191l-34.426 6.895c-5.551 1.105-13.383 5.293-17.387 9.3l-39.394 39.395 32.777 32.781 75.82-97.671c-4.008 4.007-11.832 8.187-17.39 9.3zm0 0" data-original="#ffeab0" class=""></path><path fill="#ffc38f" d="M424.594 109.266c-6.031-6.032-15.824-6.032-21.856 0l-243.367 243.37 94.7-50.991L424.593 131.12c6.031-6.031 6.039-15.816 0-21.855zm0 0" data-original="#ffc38f"></path><path fill="#fa4087" d="M254.07 301.645 52.762 502.949c-12.07 12.07-31.63 12.063-43.703 0l10.925-32.781 124.82-124.816 54.633-32.782zm0 0" data-original="#fa4087"></path><path fill="#fa71a3" d="M199.438 312.57 9.058 502.95c-12.074-12.071-12.078-31.645-.007-43.716L137.52 330.781c4.003-4.008 11.82-8.195 17.386-9.304zm0 0" data-original="#fa71a3"></path></g></svg>