<svg id="Layer_1" data-name="Layer 1" xmlns="http://www.w3.org/2000/svg" viewBox="0 0 429.1 512">
  <g>
    <path d="M359,10.9A38.5,38.5,0,0,0,337.2,0a38.7,38.7,0,0,1-11,32.8L271.6,87.4a46.4,46.4,0,0,0,0,65.6l76.5-11L359,65.6a38.7,38.7,0,0,0,0-54.7Z" transform="translate(0)" style="fill: #35b9ff"/>
    <path d="M413.7,120.2,370,163.9,337.2,87.4,359,65.6Z" transform="translate(0)" style="fill: #fa4087"/>
    <path d="M391.8,142l-43.7,43.8-32.8-76.5,21.9-21.9Z" transform="translate(0)" style="fill: #ffeab0"/>
    <path d="M370,163.9l-43.8,43.7-32.7-76.5,21.8-21.8Z" transform="translate(0)" style="fill: #fa4087"/>
    <path d="M348.1,185.8l-43.7,43.7-54.6-54.7L271.6,153Z" transform="translate(0)" style="fill: #fa4087"/>
    <path d="M348.1,185.8l-21.9,21.8L271.6,153l21.9-21.9ZM228.7,275.2l-34.4,6.9a40.4,40.4,0,0,0-17.4,9.3l-39.4,39.4,32.8,32.8,75.8-97.7a39.8,39.8,0,0,1-17.4,9.3Z" transform="translate(0)" style="fill: #ffeab0"/>
    <path d="M424.6,109.3a15.4,15.4,0,0,0-21.9,0L159.4,352.6l94.7-51L424.6,131.1a15.5,15.5,0,0,0,0-21.8Z" transform="translate(0)" style="fill: #ffc38f"/>
    <path d="M254.1,301.6,52.8,502.9a30.8,30.8,0,0,1-43.7,0L20,470.2,144.8,345.4l54.6-32.8Z" transform="translate(0)" style="fill: #fa4087"/>
    <path d="M199.4,312.6,9.1,503a31,31,0,0,1,0-43.8L137.5,330.8a39.8,39.8,0,0,1,17.4-9.3Z" transform="translate(0)" style="fill: #fa71a3"/>
  </g>
</svg>
