<svg xmlns="http://www.w3.org/2000/svg" version="1.1" xmlns:xlink="http://www.w3.org/1999/xlink" xmlns:svgjs="http://svgjs.com/svgjs" width="512" height="512" x="0" y="0" viewBox="0 0 128 128" style="enable-background:new 0 0 512 512" xml:space="preserve" class=""><g><path fill="#ff6687" d="M120.5 41.809c-7.357-7.774-31.582-3.027-48.78 4.431a19.427 19.427 0 0 1-15.44 0c-17.2-7.458-41.423-12.205-48.78-4.431-5.875 6.208-6.529 17.958-.653 27.955q58.362 27.962 114.306 0c5.876-9.997 5.222-21.747-.653-27.955z" data-original="#ff6687" class=""></path><path fill="#f5f6ff" d="M120.19 81.14c-1.31 3.14-14.49 5-15.16 2.21a6.025 6.025 0 0 1-.21.64c-1.25 2.88-11.53 4.57-16.38 3.61-1.37-.28-2.31-.76-2.49-1.48v-.05a4.227 4.227 0 0 1-3.43 3.23 57.84 57.84 0 0 1-14.53.7c-1.07-.09-2.83-.52-3.34-1.64a12.064 12.064 0 0 1-.62-3.82l-.03-.56a13.838 13.838 0 0 1-.65 4.38c-.51 1.12-2.27 1.55-3.34 1.64a57.84 57.84 0 0 1-14.53-.7 4.227 4.227 0 0 1-3.43-3.23v.05c-.85 3.29-17.27 1.56-18.87-2.13a6.025 6.025 0 0 1-.21-.64c-.67 2.79-13.85.93-15.16-2.21-.95-2.29-1.82-14.01.3-17.62 2.86-4.89 11.6-2.19 14.13 4.69a.449.449 0 0 0 .87-.07 16.246 16.246 0 0 1 1.32-4.51c1.73-3.29 8.36-3.32 12.83 0 2.07 1.54 3.12 4.27 4.01 6.88a.41.41 0 0 0 .8-.1c.07-.98.16-1.93.26-2.52 1.86-10.75 17.9-7.92 20.38 2.73.21.88.39 1.79.55 2.7a.728.728 0 0 0 .74.63h.03a.724.724 0 0 0 .71-.63c.16-.91.34-1.82.55-2.7 2.48-10.65 18.52-13.48 20.38-2.73.05.28.09.65.14 1.06v.11c.05.42.09.88.12 1.35a.41.41 0 0 0 .8.1c.23-.66.46-1.33.72-1.98a10.923 10.923 0 0 1 3.29-4.9c4.47-3.32 11.1-3.29 12.83 0a16.246 16.246 0 0 1 1.32 4.51.449.449 0 0 0 .87.07c2.53-6.88 11.27-9.58 14.13-4.69 2.12 3.61 1.25 15.33.3 17.62z" data-original="#f5f6ff"></path><path fill="#ffdbbd" d="M64.03 73.95v10.59l-.03-.56a13.838 13.838 0 0 1-.65 4.38c-.51 1.12-2.27 1.55-3.34 1.64a57.84 57.84 0 0 1-14.53-.7 4.227 4.227 0 0 1-3.43-3.23v.05c-.85 3.29-17.27 1.56-18.87-2.13a6.025 6.025 0 0 1-.21-.64c-.67 2.79-13.85.93-15.16-2.21-.95-2.29-1.82-14.01.3-17.62 2.86-4.89 11.6-2.19 14.13 4.69a.449.449 0 0 0 .87-.07 16.246 16.246 0 0 1 1.32-4.51c1.73-3.29 8.36-3.32 12.83 0 2.07 1.54 3.12 4.27 4.01 6.88a.41.41 0 0 0 .8-.1c.07-.98.16-1.93.26-2.52 1.86-10.75 17.9-7.92 20.38 2.73.21.88.39 1.79.55 2.7a.728.728 0 0 0 .74.63z" data-original="#ffdbbd"></path><g fill="#3c3559"><path d="M64 114.167a1.5 1.5 0 0 1-1.5-1.5v-4a1.5 1.5 0 0 1 3 0v4a1.5 1.5 0 0 1-1.5 1.5zm0-8a1.5 1.5 0 0 1-1.5-1.5v-4a1.5 1.5 0 0 1 3 0v4a1.5 1.5 0 0 1-1.5 1.5zm0-8a1.5 1.5 0 0 1-1.5-1.5v-4a1.5 1.5 0 0 1 3 0v4a1.5 1.5 0 0 1-1.5 1.5zm0-8a1.5 1.5 0 0 1-1.5-1.5v-4a1.5 1.5 0 0 1 3 0v4a1.5 1.5 0 0 1-1.5 1.5zm0-8a1.5 1.5 0 0 1-1.5-1.5v-4a1.5 1.5 0 0 1 3 0v4a1.5 1.5 0 0 1-1.5 1.5zm0-8a1.5 1.5 0 0 1-1.5-1.5v-4a1.5 1.5 0 0 1 3 0v4a1.5 1.5 0 0 1-1.5 1.5zm0-8a1.5 1.5 0 0 1-1.5-1.5v-4a1.5 1.5 0 0 1 3 0v4a1.5 1.5 0 0 1-1.5 1.5zm0-8a1.5 1.5 0 0 1-1.5-1.5v-4a1.5 1.5 0 0 1 3 0v4a1.5 1.5 0 0 1-1.5 1.5zm0-8a1.5 1.5 0 0 1-1.5-1.5v-4a1.5 1.5 0 0 1 3 0v4a1.5 1.5 0 0 1-1.5 1.5zm0-8a1.5 1.5 0 0 1-1.5-1.5v-4a1.5 1.5 0 0 1 3 0v4a1.5 1.5 0 0 1-1.5 1.5zm0-8a1.5 1.5 0 0 1-1.5-1.5v-4a1.5 1.5 0 0 1 3 0v4a1.5 1.5 0 0 1-1.5 1.5zm0-8a1.5 1.5 0 0 1-1.5-1.5v-4a1.5 1.5 0 0 1 3 0v4a1.5 1.5 0 0 1-1.5 1.5z" fill="#3c3559" data-original="#3c3559" class=""></path><path d="M121.152 71.264A1.5 1.5 0 0 1 119.86 69c5.31-9.033 5.117-20.282-.45-26.163-6.482-6.853-29.493-2.857-47.094 4.776a20.975 20.975 0 0 1-16.632 0c-17.6-7.629-40.611-11.626-47.094-4.773C3.023 48.721 2.83 59.97 8.14 69a1.5 1.5 0 0 1-2.586 1.521c-6.06-10.309-5.7-22.819.856-29.747 8.7-9.193 35.574-2.371 50.467 4.087a17.967 17.967 0 0 0 14.246 0c14.893-6.459 41.764-13.281 50.467-4.087 6.556 6.928 6.916 19.438.856 29.747a1.5 1.5 0 0 1-1.294.743z" fill="#3c3559" data-original="#3c3559" class=""></path><path d="M55.617 91.675a57.735 57.735 0 0 1-10.423-.906 5.87 5.87 0 0 1-4.836-5.705c-.176-2.387-.663-10.7.5-17.427a9.311 9.311 0 0 1 9.335-8.037 14.1 14.1 0 0 1 13.983 10.678c1.7 7.286 1.686 16.191.539 18.706-.938 2.058-3.742 2.444-4.58 2.513a55.339 55.339 0 0 1-4.518.178zm-11.8-23.529c-1.1 6.389-.632 14.4-.461 16.7a2.946 2.946 0 0 0 2.406 2.979 56.265 56.265 0 0 0 14.131.685 3.129 3.129 0 0 0 2.1-.767c.742-1.624.938-9.636-.731-16.779a11.229 11.229 0 0 0-10.98-8.364 6.351 6.351 0 0 0-6.47 5.545z" fill="#3c3559" data-original="#3c3559" class=""></path><path d="M36.355 89.363c-5.113 0-13.089-1.4-14.548-4.783C20.381 81.27 20.6 67.7 23.1 62.933c1.45-2.758 5.126-3.958 9.362-3.06 5.1 1.081 10.437 5.159 10.879 11.831.054.826-2.94 1.025-2.994.2-.337-5.108-4.516-8.248-8.508-9.094-2.843-.6-5.288.008-6.083 1.521-2.12 4.032-2.2 16.72-1.2 19.064.22.51 2.176 1.809 6.817 2.562 5.054.819 8.644.246 9.252-.307.247-.742 3.083.051 2.875.852-.426 1.639-2.207 2.555-5.444 2.8-.51.041-1.085.061-1.701.061zM72.383 91.674c-1.551 0-3.076-.058-4.519-.177-.837-.069-3.641-.455-4.58-2.513-1.146-2.515-1.162-11.42.54-18.706A14.137 14.137 0 0 1 77.807 59.6a9.311 9.311 0 0 1 9.339 8.034c1.159 6.726.672 15.04.5 17.428a5.87 5.87 0 0 1-4.836 5.7 57.738 57.738 0 0 1-10.427.912zM77.451 62.6a11.237 11.237 0 0 0-10.7 8.364c-1.669 7.143-1.473 15.155-.732 16.778a3.128 3.128 0 0 0 2.1.768 56.079 56.079 0 0 0 14.132-.685 2.946 2.946 0 0 0 2.406-2.978c.171-2.3.642-10.309-.461-16.7a6.351 6.351 0 0 0-6.47-5.545c-.097-.002-.186-.002-.275-.002z" fill="#3c3559" data-original="#3c3559" class=""></path><path d="M91.645 89.363c-.617 0-1.19-.02-1.707-.06-3.237-.248-5.018-1.164-5.444-2.8-.208-.8 2.628-1.594 2.875-.852.608.554 4.2 1.127 9.252.307 4.641-.753 6.6-2.052 6.816-2.562 1.01-2.344.925-15.032-1.195-19.064-.8-1.513-3.237-2.125-6.083-1.521-3.992.846-8.171 3.986-8.508 9.094-.054.827-3.048.628-2.994-.2.442-6.672 5.782-10.75 10.879-11.831 4.235-.9 7.911.3 9.362 3.06 2.506 4.767 2.721 18.337 1.3 21.647-1.464 3.384-9.44 4.782-14.553 4.782z" fill="#3c3559" data-original="#3c3559" class=""></path><path d="M109.058 86.211c-.421 0-.816-.014-1.177-.042-2.514-.2-3.964-1.026-4.313-2.465-.194-.806 2.6-1.583 2.86-.887.679.423 3.866.708 7.879-.237 3.064-.722 4.352-1.668 4.5-2.014.871-2.1 1.557-13.278-.2-16.293-1.186-2.026-3.561-1.817-4.525-1.633a9.674 9.674 0 0 0-7.387 7.952c-.127.82-3.091.363-2.965-.456a12.593 12.593 0 0 1 9.791-10.443c3.318-.633 6.184.516 7.675 3.066 2.49 4.258 1.38 16.561.386 18.958-1.264 3.022-8.234 4.494-12.524 4.494zM18.942 86.211c-4.29 0-11.26-1.472-12.515-4.494-.994-2.4-2.1-14.7.385-18.957 1.492-2.552 4.36-3.7 7.676-3.067a12.593 12.593 0 0 1 9.791 10.443c.126.819-2.839 1.276-2.965.456a9.674 9.674 0 0 0-7.387-7.952c-.965-.185-3.339-.393-4.525 1.634-1.761 3.014-1.075 14.195-.2 16.292.143.346 1.431 1.292 4.495 2.014 4.011.944 7.2.661 7.879.237.264-.7 3.054.081 2.86.887-.349 1.439-1.8 2.268-4.313 2.465-.365.031-.761.042-1.181.042z" fill="#3c3559" data-original="#3c3559" class=""></path></g><path fill="#ffb45a" d="m92.559 7.907-1.393 2.546a5.754 5.754 0 0 1-2.287 2.288l-2.547 1.392a.743.743 0 0 0 0 1.3l2.547 1.393a5.754 5.754 0 0 1 2.287 2.288l1.393 2.546a.743.743 0 0 0 1.3 0l1.392-2.546a5.75 5.75 0 0 1 2.288-2.288l2.546-1.393a.743.743 0 0 0 0-1.3l-2.546-1.392a5.75 5.75 0 0 1-2.288-2.288l-1.388-2.546a.743.743 0 0 0-1.304 0zM109.623 20.448l-1.115 2.04a4.618 4.618 0 0 1-1.833 1.833l-2.04 1.115a.6.6 0 0 0 0 1.045l2.04 1.116a4.622 4.622 0 0 1 1.833 1.832l1.115 2.04a.6.6 0 0 0 1.045 0l1.115-2.04a4.622 4.622 0 0 1 1.833-1.832l2.04-1.116a.6.6 0 0 0 0-1.045l-2.04-1.115a4.618 4.618 0 0 1-1.833-1.833l-1.115-2.04a.6.6 0 0 0-1.045 0z" data-original="#ffb45a"></path><path fill="#3c3559" d="M93.211 23.55a2.243 2.243 0 0 1-1.968-1.165l-1.393-2.548a4.24 4.24 0 0 0-1.691-1.691l-2.547-1.393a2.244 2.244 0 0 1 0-3.935l2.549-1.393a4.24 4.24 0 0 0 1.689-1.691l1.392-2.546a2.244 2.244 0 0 1 3.936 0l1.393 2.546a4.228 4.228 0 0 0 1.691 1.691l2.546 1.393a2.244 2.244 0 0 1 0 3.937l-2.546 1.392a4.244 4.244 0 0 0-1.691 1.69l-1.391 2.547a2.244 2.244 0 0 1-1.969 1.166zm-4.945-8.765 1.333.729a7.231 7.231 0 0 1 2.883 2.886l.729 1.332.728-1.333a7.237 7.237 0 0 1 2.884-2.884l1.332-.729-1.332-.728a7.233 7.233 0 0 1-2.884-2.885l-.728-1.333-.729 1.333a7.234 7.234 0 0 1-2.882 2.884zM110.146 33.279a2.093 2.093 0 0 1-1.839-1.091l-1.116-2.039a3.1 3.1 0 0 0-1.236-1.236l-2.04-1.116a2.1 2.1 0 0 1 0-3.677l2.039-1.115a3.109 3.109 0 0 0 1.237-1.238l1.115-2.038a2.095 2.095 0 0 1 3.677 0l1.116 2.039a3.1 3.1 0 0 0 1.236 1.237l2.04 1.116a2.094 2.094 0 0 1 0 3.676l-2.039 1.116a3.089 3.089 0 0 0-1.236 1.236l-1.116 2.04a2.094 2.094 0 0 1-1.838 1.09zm-3.34-7.32.589.322a6.1 6.1 0 0 1 2.428 2.427l.323.59.321-.589a6.1 6.1 0 0 1 2.429-2.428l.589-.323-.589-.321a6.094 6.094 0 0 1-2.429-2.43l-.321-.588-.322.589a6.117 6.117 0 0 1-2.429 2.429z" data-original="#3c3559" class=""></path></g></svg>