<svg xmlns="http://www.w3.org/2000/svg" version="1.1" xmlns:xlink="http://www.w3.org/1999/xlink" xmlns:svgjs="http://svgjs.com/svgjs" width="512" height="512" x="0" y="0" viewBox="0 0 497 497" style="enable-background:new 0 0 512 512" xml:space="preserve" class=""><g><path fill="#b98080" d="M373.632 497c-6.38 0-12.492-3.618-15.37-9.782l-67.811-145.171c-3.962-8.483-.298-18.572 8.185-22.534s18.572-.299 22.534 8.185l67.811 145.171c3.962 8.483.298 18.572-8.185 22.534a16.892 16.892 0 0 1-7.164 1.597z" data-original="#b98080"></path><path fill="#ae6c6c" d="M321.17 327.698c-3.962-8.484-14.051-12.147-22.534-8.185s-12.147 14.051-8.185 22.534l47.811 102.355a213.453 213.453 0 0 0 29.664-16.608z" data-original="#ae6c6c"></path><path fill="#b98080" d="M123.368 497c-2.403 0-4.843-.513-7.164-1.597-8.483-3.962-12.147-14.051-8.185-22.534l67.811-145.171c3.962-8.483 14.052-12.148 22.534-8.185 8.483 3.962 12.147 14.051 8.185 22.534l-67.811 145.171c-2.878 6.162-8.99 9.782-15.37 9.782z" data-original="#b98080"></path><path fill="#ae6c6c" d="M198.364 319.513c-8.482-3.963-18.572-.298-22.534 8.185l-46.756 100.096a213.248 213.248 0 0 0 29.664 16.608l47.811-102.355c3.963-8.482.298-18.572-8.185-22.534z" data-original="#ae6c6c"></path><path fill="#efedef" d="M232.828 15.672h31.344v78.012h-31.344z" data-original="#efedef"></path><path fill="#8ac9fe" d="M292.35 15.672c0 8.655-7.017 15.672-15.672 15.672h-56.355c-8.655 0-15.672-7.017-15.672-15.672C204.65 7.017 211.667 0 220.322 0h56.355c8.656 0 15.673 7.017 15.673 15.672z" data-original="#8ac9fe" class=""></path><path fill="#60b7ff" d="M276.678 0h-20c8.655 0 15.672 7.017 15.672 15.672s-7.017 15.672-15.672 15.672h20c8.655 0 15.672-7.017 15.672-15.672S285.333 0 276.678 0z" data-original="#60b7ff"></path><path fill="#fed402" d="M206.421 71.827c-37.439-37.439-98.141-37.439-135.581 0-37.44 37.44-37.44 98.141 0 135.581zM426.159 207.407c37.44-37.439 37.44-98.141 0-135.581-37.439-37.439-98.141-37.439-135.581 0z" data-original="#fed402"></path><path fill="#fac600" d="M426.159 71.827c-22.548-22.548-53.53-31.494-82.79-26.883 19.324 3.045 37.899 11.992 52.79 26.883 32.282 32.282 36.703 81.848 13.314 118.895l16.686 16.686c37.44-37.44 37.44-98.142 0-135.581z" data-original="#fac600"></path><path fill="#fd8087" d="M420.345 249.007C420.345 95.45 248.5 64.368 248.5 64.368c-101.973 0-184.638 82.665-184.638 184.638S146.527 433.644 248.5 433.644c0 0 171.845-31.08 171.845-184.637z" data-original="#fd8087"></path><path fill="#fe646f" d="M379.059 118.448c-39.872-39.871-93.44-57.683-145.559-53.46 42.136 3.414 83.324 21.226 115.559 53.46 72.105 72.106 72.105 189.012 0 261.117-32.235 32.234-73.423 50.046-115.559 53.46 52.119 4.223 105.687-13.589 145.559-53.46 72.105-72.105 72.105-189.012 0-261.117z" data-original="#fe646f"></path><path fill="#efedef" d="M378.106 249.007c0-130.559-129.606-138.559-129.606-138.559-76.524 0-138.558 62.035-138.558 138.558 0 76.524 62.035 138.558 138.558 138.558 0 .001 129.606-15.608 129.606-138.557z" data-original="#efedef"></path><path fill="#d7d0d6" d="M346.476 151.031c-29.6-29.6-69.261-43.008-107.976-40.223 32.057 2.306 63.465 15.713 87.976 40.223 54.11 54.11 54.11 141.84 0 195.951-24.51 24.51-55.919 37.918-87.976 40.223 38.714 2.784 78.375-10.623 107.976-40.223 54.11-54.11 54.11-141.84 0-195.951z" data-original="#d7d0d6"></path><g fill="#685e68"><path d="M241 110.658v18.852c0 4.143 3.358 7.5 7.5 7.5s7.5-3.357 7.5-7.5v-18.852a139.506 139.506 0 0 0-15 0zM248.5 361.004a7.5 7.5 0 0 0-7.5 7.5v18.851c4.996.269 10.004.269 15 0v-18.851a7.5 7.5 0 0 0-7.5-7.5zM110.151 256.507h18.851c4.142 0 7.5-3.357 7.5-7.5s-3.358-7.5-7.5-7.5h-18.851a139.506 139.506 0 0 0 0 15z" fill="#685e68" data-original="#685e68"></path></g><path fill="#685e68" d="M360.497 249.007a7.5 7.5 0 0 0 7.5 7.5h18.852c.269-4.996.269-10.004 0-15h-18.852a7.5 7.5 0 0 0-7.5 7.5zM248.5 256.507h-66.222c-4.142 0-7.5-3.357-7.5-7.5s3.358-7.5 7.5-7.5H241v-79.419c0-4.143 3.358-7.5 7.5-7.5s7.5 3.357 7.5 7.5v86.919a7.5 7.5 0 0 1-7.5 7.5z" data-original="#685e68"></path><path fill="#fed402" d="M248.5 224.008c-13.806 0-24.998 11.192-24.998 24.998s11.192 24.998 24.998 24.998 22.998-11.192 22.998-24.999c0-13.805-9.192-24.997-22.998-24.997z" data-original="#fed402"></path><path fill="#fac600" d="M266.177 231.33c-6.945-6.945-16.959-8.944-25.676-6.008a24.871 24.871 0 0 1 9.676 6.008c9.762 9.762 9.762 25.591 0 35.353a24.902 24.902 0 0 1-9.676 6.008c8.717 2.937 18.731.938 25.676-6.008 9.762-9.762 9.762-25.591 0-35.353z" data-original="#fac600"></path></g></svg>