<svg xmlns="http://www.w3.org/2000/svg" version="1.1" xmlns:xlink="http://www.w3.org/1999/xlink" xmlns:svgjs="http://svgjs.com/svgjs" width="512" height="512" x="0" y="0" viewBox="0 0 24 24" style="enable-background:new 0 0 512 512" xml:space="preserve" class=""><g><path fill="#d32f2f" d="M22 12.25v10c0 .96-.79 1.75-1.75 1.75h-7.5V13h-1.5v11h-7.5C2.79 24 2 23.21 2 22.25v-10c0-.41.34-.75.75-.75h18.5c.41 0 .75.34.75.75z" data-original="#d32f2f"></path><path fill="#f44336" d="M24 8.75v2.5c0 .96-.79 1.75-1.75 1.75H1.75C.79 13 0 12.21 0 11.25v-2.5C0 7.79.79 7 1.75 7h20.5c.96 0 1.75.79 1.75 1.75z" data-original="#f44336"></path><path fill="#ffc107" d="M12 8.044a.752.752 0 0 1-.742-.86c.37-2.5 2.323-7.228 7.071-7.228C21.039-.044 22 1.42 22 2.674c0 2.229-3.103 5.37-10 5.37zm6.329-6.588c-3.582 0-4.942 3.405-5.393 5.066 2.826-.132 4.608-.847 5.634-1.456 1.423-.845 1.93-1.79 1.93-2.393 0-.898-1.121-1.217-2.171-1.217z" data-original="#ffc107"></path><path fill="#ffc107" d="M12.001 8.044c-6.898 0-10-3.141-10-5.37 0-1.254.962-2.718 3.672-2.718 4.747 0 6.7 4.728 7.07 7.228a.752.752 0 0 1-.742.86zM5.673 1.456c-1.05 0-2.172.32-2.172 1.218 0 1.277 2.233 3.603 7.564 3.849-.451-1.662-1.811-5.067-5.392-5.067z" data-original="#ffc107"></path><path fill="#ff8f00" d="M12.75 13v11h-1.5V13z" data-original="#ff8f00"></path><path fill="#ffc107" d="M12.75 7.59V13h-1.5V7.59c0-.229.08-.439.21-.59.14-.15.33-.25.54-.25s.4.1.54.25c.13.15.21.36.21.59z" data-original="#ffc107"></path><path fill="#b82929" d="M11.25 13H2v9.25c0 .96.79 1.75 1.75 1.75h7.5z" data-original="#b82929"></path><path fill="#d43a2f" d="M5.966 7H1.75C.79 7 0 7.79 0 8.75v2.5C0 12.21.79 13 1.75 13H12h-.75V8.031C9.098 7.957 7.344 7.567 5.966 7z" data-original="#d43a2f"></path><path fill="#dedede" d="M5.673 1.456c-1.05 0-2.172.32-2.172 1.218 0 1.277 2.233 3.603 7.564 3.849-.451-1.662-1.811-5.067-5.392-5.067z" data-original="#dedede"></path><path fill="#dea806" d="M11.064 6.522C5.734 6.277 3.5 3.951 3.5 2.673c0-.898 1.122-1.218 2.172-1.218 3.582.001 4.942 3.406 5.392 5.067zM5.673-.044c-2.71 0-3.672 1.464-3.672 2.718 0 1.422 1.262 3.214 3.965 4.326 1.379.567 3.132.957 5.284 1.031V7.59c0-.229.08-.439.21-.59.14-.15.33-.25.54-.25V4.635C11.016 2.352 9.052-.044 5.673-.044z" data-original="#dea806" class=""></path><path fill="#de7c00" d="M12 13h-.75v11H12z" data-original="#de7c00"></path><path fill="#dea806" d="M12 6.75c-.21 0-.4.1-.54.25-.13.15-.21.36-.21.59V13H12z" data-original="#dea806" class=""></path></g></svg>